<svg t="1781265984952" class="icon" viewBox="0 0 1024 1024" version="1.1" xmlns="http://www.w3.org/2000/svg" p-id="1319" width="200" height="200"><path d="M904.5001417 900.32000293c-38.9487252 38.9487252-90.87977285 57.49540224-150.23054619 61.20526465-139.10183613 7.41796787-319.00688965-72.3330958-469.23655694-222.56276221C136.65786347 588.73195918 55.05142959 408.82778457 62.47027637 271.58043974c3.70898349-61.20526465 24.11103164-113.13631231 63.05975683-152.0850375C155.20454141 89.82001602 194.15238682 69.41884677 238.66546748 62c18.54755596 3.70898349 33.38524951 14.83769355 44.51307979 33.3843706v1.85449219l81.60643388 150.23054531c16.69218487 31.52899951 5.56347568 72.3322169-25.96552383 89.02440177l-77.89745039 63.05975683c25.96552383 81.60643388 64.91424903 152.0850375 137.24734482 226.27262549 72.3330958 72.3330958 142.8108205 111.28094209 224.4172544 137.24734482l63.05975684-79.75194258c16.69218487-31.52987842 57.49540224-44.51307979 89.02440175-27.82089404l152.08591641 81.60643389c20.40116924 11.12870917 31.52899951 29.67538623 33.3843706 51.93192656-7.41884678 44.51220088-25.96640273 81.60643388-55.64091005 111.28094209z" fill="#515151" p-id="1320"></path></svg>