<?xml version="1.0" standalone="no"?><!DOCTYPE svg PUBLIC "-//W3C//DTD SVG 1.1//EN" "http://www.w3.org/Graphics/SVG/1.1/DTD/svg11.dtd"><svg t="1781350676121" class="icon" viewBox="0 0 1024 1024" version="1.1" xmlns="http://www.w3.org/2000/svg" p-id="1390" xmlns:xlink="http://www.w3.org/1999/xlink" width="200" height="200"><path d="M725.01875027 680.75c-44.04375 72.95625027-125.2125 117.95625-213.07500054 118.125-87.91875-0.16875-169.0875-45.16874973-213.18749946-118.125a32.62500027 32.62500027 0 0 1-1.06875027-34.53749973 35.4375 35.4375 0 0 1 31.21875-17.32500054c12.93749973 0.16875 24.69375027 7.14375027 30.65624973 18.11250027 31.55625 52.14375 89.54999973 84.26250027 152.38125 84.375 62.775-0.11249973 120.71250027-32.23125 152.2125-84.375a35.4375 35.4375 0 0 1 30.48750054-17.04375 35.4375 35.4375 0 0 1 30.54375 16.875 32.62500027 32.62500027 0 0 1-0.11250054 33.91875M821.65625 258.875H188.28124973C149.63749973 258.875 118.30625 288.96875027 118.24999973 326.09375027v540.44999973C118.24999973 903.66875 149.63749973 933.875 188.28124973 933.875h633.37500027c38.70000027-0.05625027 69.97499973-30.14999973 70.03125-67.27499973V326.14999973c0-37.125-31.3875-67.21875027-70.03125-67.27499973m-316.68749973-101.25c58.16249973 0 105.46875 45.45000027 105.46875 101.25H680.75c0-93.03750027-78.86250027-168.75-175.78124973-168.75S329.18749973 165.83749973 329.18749973 258.875H399.50000027c0-55.79999973 47.30625027-101.25 105.46875-101.25" fill="#ffffff" p-id="1391"></path></svg>