<?xml version="1.0" standalone="no"?><!DOCTYPE svg PUBLIC "-//W3C//DTD SVG 1.1//EN" "http://www.w3.org/Graphics/SVG/1.1/DTD/svg11.dtd"><svg t="1781335180305" class="icon" viewBox="0 0 1024 1024" version="1.1" xmlns="http://www.w3.org/2000/svg" p-id="1474" xmlns:xlink="http://www.w3.org/1999/xlink" width="200" height="200"><path d="M882.56 938.24H139.52c-15.36 0-30.72-7.68-40.32-19.2-9.6-13.44-13.44-28.8-9.6-44.16 38.4-195.84 197.76-341.76 389.76-357.12 64.32 0 133.92 8.16 203.52 36.48 20.16 8.16 26.88 13.44 38.4 19.2 111.36 63.36 188.16 172.8 213.12 301.44 3.84 15.36 0 30.72-11.52 44.16-9.6 11.52-24.96 19.2-40.32 19.2z" fill="#ffffff" p-id="1475"></path><path d="M140.48 907.04c-6.24 0-12-2.4-15.36-6.72-0.48-0.48-0.48-0.96-0.96-1.44-4.8-4.8-5.28-12.96-4.32-17.76 35.52-182.4 184.8-319.2 363.36-332.16h14.4c85.92 0 168.48 26.88 208.8 52.32C812 664.64 882.56 764 904.64 881.12c0.96 6.72-0.48 12.96-5.28 19.2-3.36 4.32-9.12 6.72-15.36 6.72H140.48z" fill="#ffffff" p-id="1476"></path><path d="M497.6 560.48c83.52 0 163.68 25.92 202.56 50.4h0.48c102.72 60.96 170.88 157.44 192 271.68 0.48 2.4 0.48 5.76-3.36 10.08-0.48 0.96-2.88 1.92-5.76 1.92H140.48c-2.88 0-5.28-0.96-5.76-1.92-0.48-0.96-1.44-1.92-2.4-2.4-0.96-0.96-1.92-3.84-0.96-7.2 34.56-177.12 179.04-309.6 352.32-322.56 4.32 0.48 9.12 0 13.92 0m0-24c-4.8 0-10.08 0-14.88 0.48C298.4 550.4 144.8 690.56 108.32 878.72c-1.92 9.6 0 21.12 7.68 28.8 5.76 7.68 15.36 11.52 24.96 11.52H884c9.6 0 19.2-3.84 24.96-11.52 5.76-7.68 9.6-17.28 7.68-28.8-23.04-122.88-96-223.68-203.52-288-40.8-25.44-124.32-54.24-215.52-54.24zM512 535.04c-120.96 0-220.8-99.84-220.8-220.8S391.04 93.44 512 93.44s220.8 99.84 220.8 220.8S632.96 535.04 512 535.04z" fill="#ffffff" p-id="1477"></path><path d="M512 503.84c-104.64 0-189.6-84.96-189.6-189.6S407.36 124.64 512 124.64s189.6 84.96 189.6 189.6-84.96 189.6-189.6 189.6z" fill="#ffffff" p-id="1478"></path><path d="M512 136.64c97.92 0 177.6 79.68 177.6 177.6S609.92 491.84 512 491.84s-177.6-79.68-177.6-177.6 79.68-177.6 177.6-177.6m0-24c-111.36 0-201.6 90.24-201.6 201.6s90.24 201.6 201.6 201.6 201.6-90.24 201.6-201.6S623.36 112.64 512 112.64z" fill="#ffffff" p-id="1479"></path></svg>