<?xml version="1.0" standalone="no"?><!DOCTYPE svg PUBLIC "-//W3C//DTD SVG 1.1//EN" "http://www.w3.org/Graphics/SVG/1.1/DTD/svg11.dtd"><svg t="1781350682107" class="icon" viewBox="0 0 1024 1024" version="1.1" xmlns="http://www.w3.org/2000/svg" p-id="1580" xmlns:xlink="http://www.w3.org/1999/xlink" width="200" height="200"><path d="M849.36000031 471.99999969c-68.08000031 0-117.36-35.80000031-117.36-79.99999969 0 44.20000031-49.36000031 79.99999969-117.32000062 79.99999969C561.27999969 471.99999969 512 436.20000031 512 392c0 44.23999969-49.36000031 79.99999969-102.64000031 79.99999969C341.28000031 471.99999969 291.99999969 436.20000031 291.99999969 392c0 44.16-49.36000031 79.99999969-102.63999938 79.99999969-30.48 0-57.19999969-7.15999969-77.36000062-19.03999969v458.76A39.96 39.96 0 0 0 151.68000031 951.99999969H552.00000031v-239.88A40.00000031 40.00000031 0 0 1 591.99999969 672.00000031h120c22.12000031 0 40.00000031 17.52 40.00000031 40.11999938V951.99999969h120.36c21.43999969 0 39.6-18.04000031 39.6-40.27999969v-457.2a121.12000031 121.12000031 0 0 1-62.59999969 17.47999969M819.99999969 102.00000031c-5.28-14.76-32.68000031-30-58.68-30H262.64c-26.20000031 0-53.47999969 15.24-58.63999969 30L72.00000031 312.00000031c0 44.23999969 49.24000031 79.99999969 117.31999969 79.99999969C242.6 392 291.99999969 356.16000031 291.99999969 312.00000031c0 44.20000031 49.24000031 79.99999969 117.32000062 79.99999969C462.60000031 392 512 356.24 512 312.00000031c0 44.20000031 49.24000031 79.99999969 102.64000031 79.99999969 67.99999969 0 117.36-35.80000031 117.36-79.99999969 0 44.20000031 49.24000031 79.99999969 117.31999969 79.99999969C902.6 392 951.99999969 356.16000031 951.99999969 312.00000031l-132-210z" fill="#ffffff" p-id="1581"></path></svg>