<?xml version="1.0" standalone="no"?><!DOCTYPE svg PUBLIC "-//W3C//DTD SVG 1.1//EN" "http://www.w3.org/Graphics/SVG/1.1/DTD/svg11.dtd"><svg t="1781333642400" class="icon" viewBox="0 0 1024 1024" version="1.1" xmlns="http://www.w3.org/2000/svg" p-id="1594" xmlns:xlink="http://www.w3.org/1999/xlink" width="200" height="200"><path d="M776 969.92H242.34666667c-52.90666667 0-96-43.09333333-96-96V247.46666667c0-52.90666667 43.09333333-96 96-96h533.65333333c52.90666667 0 96 43.09333333 96 96v626.45333333c0 53.01333333-43.09333333 96-96 96zM242.34666667 215.46666667c-17.6 0-32 14.4-32 32v626.45333333c0 17.6 14.4 32 32 32h533.65333333c17.6 0 32-14.4 32-32V247.46666667c0-17.6-14.4-32-32-32H242.34666667z m442.13333333 89.92H333.86666667c-21.01333333 0-38.08-17.06666667-38.08-38.08V98.13333333c0-21.01333333 17.06666667-38.08 38.08-38.08h350.61333333c21.01333333 0 38.08 17.06666667 38.08 38.08v169.28c-0.10666667 20.90666667-17.17333333 37.97333333-38.08 37.97333334z m-324.69333333-64h298.66666666v-117.33333334h-298.66666666v117.33333334z m332.48 213.33333333H328.53333333c-17.70666667 0-32-14.29333333-32-32s14.29333333-32 32-32h363.73333334c17.70666667 0 32 14.29333333 32 32s-14.29333333 32-32 32z m0 182.72H328.53333333c-17.70666667 0-32-14.29333333-32-32s14.29333333-32 32-32h363.73333334c17.70666667 0 32 14.29333333 32 32s-14.29333333 32-32 32zM475.73333333 820.26666667H328.53333333c-17.70666667 0-32-14.29333333-32-32s14.29333333-32 32-32h147.2c17.70666667 0 32 14.29333333 32 32s-14.29333333 32-32 32z" fill="#515151" p-id="1595"></path></svg>