<?xml version="1.0" standalone="no"?><!DOCTYPE svg PUBLIC "-//W3C//DTD SVG 1.1//EN" "http://www.w3.org/Graphics/SVG/1.1/DTD/svg11.dtd"><svg t="1780391955364" class="icon" viewBox="0 0 1024 1024" version="1.1" xmlns="http://www.w3.org/2000/svg" p-id="1411" xmlns:xlink="http://www.w3.org/1999/xlink" width="200" height="200"><path d="M635.39692344 123.93846125c20.41846125 0 40.06153875 7.86461531 54.90461531 21.93230813l261.6369225 248.12307656c32.23384594 30.53538469 33.85846125 81.52615406 2.76923063 115.05230812l-2.76923063 2.73230719-263.88923063 250.26461531a78.42461531 78.42461531 0 0 1-111.58153875-3.61846125c-11.29846125-12.18461531-18.46153875-27.61846125-20.75076843-46.59692343l-0.36923157-7.38461532-0.0369225-88.02461531-3.69230812 0.66461531c-145.21846125 27.32307656-274.48615406 106.33846125-359.66769188 218.65846219l-8.38153875 11.33538469-16.61538468 24.07384594a65.68615406 65.68615406 0 0 1-91.86461532 17.05846125c-16.76307656-11.66769188-27.13846125-30.42461531-28.32-53.7969225l0.29538469-7.01538469c2.21538469-22.74461531 7.82769188-50.91692344 14.25230813-73.8830775 76.06153875-272.71384594 285.41538469-450.38769188 485.7969225-478.33846125l8.16-1.03384594 0.07384593-69.67384687c0-42.46153875 32.67692344-77.35384594 74.32615407-80.34461532l5.7230775-0.18461531z m1.14461531 82.89230813l-0.03692344 105.23076937a40.61538469 40.61538469 0 0 1-39.13846125 40.54153781l-14.28923062 0.51692344c-174.27692344 10.30153875-372.77538469 168.51692344-443.52 422.21538469l1.88307656-6.60923063 2.99076937-3.69230812c104.60307656-125.68615406 257.61230812-210.38769188 426.68307657-233.35384594l15.39692343-1.92 4.17230719-0.25846125 4.83692344-0.03692344a40.61538469 40.61538469 0 0 1 41.02153875 40.61538469l-0.07384688 128.89846125 258.64615407-245.20615312 0.9230775-0.88615407-259.49538469-246.05538468z" fill="#ffffff" p-id="1412"></path></svg>